<?xml version="1.0" encoding="utf-8"?>
<!-- Generator: Adobe Illustrator 23.1.0, SVG Export Plug-In . SVG Version: 6.00 Build 0)  -->
<svg version="1.1" id="Layer_1" xmlns="http://www.w3.org/2000/svg" xmlns:xlink="http://www.w3.org/1999/xlink" x="0px" y="0px"
	 viewBox="0 0 1660 1107" style="enable-background:new 0 0 1660 1107;" xml:space="preserve">
<style type="text/css">
	.st0{fill:#2D90C3;}
	.st1{fill:#EB8A23;}
</style>
<path class="st0" d="M49.5,470c-31.8,0-33.1,0-33.1,0v153.7h27.3v-56.9c0,0,15.2,0,21.5,0s52.3-3.5,52.3-51.1
	C117.4,493.4,107.6,470,49.5,470z M57.5,543.1c-8.1,0-13.7,0-13.7,0v-49.6c0,0,1.7,0,10,0c25.6,0,35.5,10.9,35.5,24.1
	C89.3,542.2,65.7,543.1,57.5,543.1z"/>
<path class="st0" d="M283.2,513.1c0-32.7-26.2-44.5-59.4-44.5c-13.4,0-40.1,1.3-40.1,1.3v153.7H211v-64.6h17.7l39.9,64.6h31.2
	L257,554.6C257,554.6,283.2,543.1,283.2,513.1z M225.3,536.4c-4,0-14.1,0-14.1,0v-42.9c0,0,5.4,0,13.3,0c20.2,0,30.3,7.1,30.3,20.6
	C254.7,538.2,229.3,536.4,225.3,536.4z"/>
<path class="st0" d="M400.9,468.7l-60.7,155.1h30.1l11.1-32h51.4l11.1,32H474l-60.7-155.1H400.9z M389.2,570.4l17.9-52.8l17.9,52.8
	H389.2z"/>
<path class="st0" d="M763.2,468.7h-12.4l-60.7,155.1h30.1l11.1-32h51.4l11.1,32h30.1L763.2,468.7z M739.1,570.4l17.9-52.8l17.9,52.8
	H739.1z"/>
<polygon class="st0" points="1120.6,467.2 1120.6,531 1061.9,531 1061.9,467.2 1032.9,467.2 1032.9,623.8 1061.9,623.8 
	1061.9,554.5 1120.6,554.5 1120.6,623.8 1149.6,623.8 1149.6,467.2 "/>
<polygon class="st0" points="618.2,623.8 650.4,623.8 594.3,536.6 642.6,468.7 610.4,468.7 560.6,541.1 560.6,468.7 532.2,468.7 
	532.2,623.8 560.6,623.8 560.6,580.9 576.8,559 "/>
<path class="st0" d="M876.5,614.1l9.1-24.2c0,0,13.7,11.4,31.5,11.4c17.8,0,23.2-7.1,23.2-17.8c0-10.7-5.7-16.8-29-29.9
	c-23.4-13.1-34.7-20.7-34.7-45.9c0-25.2,22.4-40.4,45.8-40.4c23.5,0,38.7,10.8,38.7,10.8l-8.6,23c0,0-14.2-10-30.3-10
	c-16.1,0-19.6,12.8-19.6,17.6c0,4.8,2.6,14.7,29.8,27.2c27.2,12.5,35,26.6,35,46s-13.1,42.8-52.5,42.8
	C890.5,624.5,876.5,614.1,876.5,614.1z"/>
<path class="st0" d="M1067.9,406.1c0,0,25.3-20.6,25.3-59.3c0-52.9-48.6-78.6-48.6-129.7c0-26.3,10-51,10-51s-28.7,28.6-28.7,72.4
	c0,56.6,48.6,79,48.6,128.4C1074.5,386.1,1067.9,406.1,1067.9,406.1z"/>
<path class="st0" d="M1049.5,941.3c0,0-26.8-18.5-29.9-57.1c-4.1-52.7,42.3-82.2,38.3-133.1c-2.1-26.3-13.9-50.1-13.9-50.1
	s30.9,26.3,34.3,70c4.4,56.4-42.3,82.6-38.4,131.8C1041.3,921.8,1049.5,941.3,1049.5,941.3z"/>
<path class="st1" d="M1105.4,406.1c0,0,42.3-42.1,49.4-113.2c5.9-59-21.9-59.9-22.8-149.7c-1-98.2,79-129.7,79-129.7
	s-35.8,34.3-37,94.2c0,55.8,11.2,72.7,18.3,108.5C1208.7,298.9,1167.5,376.3,1105.4,406.1z"/>
<path class="st1" d="M1230.5,472.8c0,0,22-55.5,84.6-90c51.9-28.6,63.7-3.4,146.6-38c90.6-37.7,88.1-123.7,88.1-123.7
	s-17.4,46.4-72,71.2c-51.3,22-71.2,18.3-106.9,25.9C1288.4,335.6,1233.5,404,1230.5,472.8z"/>
<path class="st1" d="M1250,568.6c0,0,51.9-29.5,122.3-17.3c58.4,10.1,51.8,37.1,138.2,62.1c94.3,27.2,146.1-41.5,146.1-41.5
	s-42.6,25.3-100.7,10.5c-53.7-14.9-67-30.2-99.6-46.7C1381,497.8,1295.4,516.7,1250,568.6z"/>
<path class="st1" d="M1215.8,639c0,0,57.3,16.9,97.3,76.1c33.2,49.1,9.2,63.1,51.2,142.6c45.8,86.8,131.2,76.5,131.2,76.5
	s-47.8-13.1-77.4-65.2c-26.5-49.1-24.7-69.3-35.5-104.1C1357.7,684.1,1284.7,635.6,1215.8,639z"/>
<path class="st1" d="M1103.1,701c0,0,42.4,42.1,49.5,113.2c5.9,59-21.9,59.9-22.7,149.8c-0.9,98.2,79.2,129.6,79.2,129.6
	s-35.8-34.3-37.1-94.1c-0.1-55.8,11.1-72.7,18.2-108.5C1206.5,808.1,1165.3,730.8,1103.1,701z"/>
<path class="st0" d="M1286.9,199.3c0,0,30.3,47.1-9.5,94.3s-71.8,44.8-71.8,131.3c0,0-11.1-13-11.1-46.7s14-58,40.1-80.5
	S1289.4,251.5,1286.9,199.3z"/>
<path class="st0" d="M1443.9,388.5c0,0-2.9,55.9-62.6,71.1c-59.7,15.2-84.5-5.5-134.9,64.9c0,0-1.5-17,18.2-44.4
	c19.7-27.4,45.2-39,79.5-42C1378.4,435,1415.5,432.4,1443.9,388.5z"/>
<path class="st0" d="M1479.2,643.5c0,0-39,40.2-94,12.2c-54.9-28-59.9-59.8-144.2-40.1c0,0,10.1-13.8,43-21.4s59.7,0.4,87.5,20.8
	C1399.3,635.3,1428.8,657.8,1479.2,643.5z"/>
<path class="st0" d="M1320.7,862.1c0,0-56,0-74.2-58.9c-18.2-58.9,1.2-84.6-71.6-131.4c0,0,16.9-2.3,45.3,15.9
	c28.4,18.2,41.3,43.2,46,77.3S1275.4,836,1320.7,862.1z"/>
</svg>
